<svg xmlns="http://www.w3.org/2000/svg" xmlns:xlink="http://www.w3.org/1999/xlink" viewBox="0 0 546.55 387.08"><defs><clipPath id="clip-path" transform="translate(-24.81 -30.78)"><rect x="137.52" y="146.88" width="324.96" height="197.21" style="fill:none"/></clipPath></defs><title>shutterstock_1211060653 [Converted]</title><g style="isolation:isolate"><g id="Layer_1" data-name="Layer 1"><path d="M144.79,90.05c26.19-9.49,28.75,3.46,70.48-7.42C257.44,71.63,258,49.8,304,36.55c29.32-8.43,61.64-7.77,85.27,3C423.12,54.88,438.43,66,455.9,91.17c28.92,41.69,27.59,33.73,64.05,67.23,34.18,31.41,60.17,118.51,48.64,173.82-12.1,58-44.84,77.35-75.2,85.23-126.11-.7-260.11.94-386.22.23-12.77-3-44.61-28.55-58.29-55.82-19.21-38.29-12-93-2.16-134.23C58.21,179.58,80.92,113.2,144.79,90.05Z" transform="translate(-24.81 -30.78)" style="fill:#edf6ff"/><rect x="420.37" y="81.54" width="54.15" height="54.15" style="fill:#5794fc"/><path d="M499.33,112.33H445.18l2.73-29.73a9.32,9.32,0,0,1,9.28-8.47h30.13a9.33,9.33,0,0,1,9.29,8.47Z" transform="translate(-24.81 -30.78)" style="fill:#5794fc"/><path d="M499.33,166.48H445.18l2.73,29.72a9.32,9.32,0,0,0,9.28,8.47h30.13a9.33,9.33,0,0,0,9.29-8.47Z" transform="translate(-24.81 -30.78)" style="fill:#5794fc"/><path d="M457.19,199.06a3.68,3.68,0,0,1-3.69-3.37l-2.17-23.6h41.85L491,195.69a3.7,3.7,0,0,1-3.7,3.37Z" transform="translate(-24.81 -30.78)" style="fill:#91c3fe"/><path d="M457.19,79.74a3.68,3.68,0,0,0-3.69,3.37l-2.17,23.6h41.85L491,83.11a3.7,3.7,0,0,0-3.7-3.37Z" transform="translate(-24.81 -30.78)" style="fill:#91c3fe"/><circle cx="447.45" cy="108.62" r="24.42" style="fill:#387eee"/><rect x="526.03" y="212.98" width="19.57" height="26.78" rx="4.38" style="fill:#4455a3"/><circle cx="472.26" cy="139.4" r="20.95" transform="translate(204.17 536.73) rotate(-76.84)" style="fill:#4455a3"/><path d="M540.07,50.8a20.43,20.43,0,0,0-18.2-15.34H422.65a20.43,20.43,0,0,0-18.2,15.34c-4.09,14.83-7.67,49.22-7.67,49.22H445s-2.13-12.91-13.77-13.42l3.86-31.88a8.53,8.53,0,0,1,8.47-7.5h57.32a8.53,8.53,0,0,1,8.47,7.5l3.86,31.88c-11.64.51-13.77,13.42-13.77,13.42h48.26S544.16,65.63,540.07,50.8Z" transform="translate(-24.81 -30.78)" style="fill:#5794fc"/><path d="M396.78,100s-15.1,57.62-6.32,185.54a10.35,10.35,0,0,0,10.32,9.65h19.64V100Z" transform="translate(-24.81 -30.78)" style="fill:#5794fc"/><path d="M547.74,100s15.09,57.62,6.32,185.54a10.35,10.35,0,0,1-10.33,9.65H524.1V100Z" transform="translate(-24.81 -30.78)" style="fill:#5794fc"/><polygon points="500.27 294.03 394.62 294.03 381.49 264.43 513.4 264.43 500.27 294.03" style="fill:#4455a3"/><rect x="402.66" y="294.03" width="89.58" height="18.41" style="fill:#5794fc"/><rect x="438.24" y="294.03" width="18.41" height="18.41" style="fill:#91c3fe"/><rect x="429.32" y="294.03" width="8.92" height="18.41" style="fill:#387eee"/><path d="M388.2,294H394a0,0,0,0,1,0,0v18.41a0,0,0,0,1,0,0H388.2a3.15,3.15,0,0,1-3.15-3.15V297.18A3.15,3.15,0,0,1,388.2,294Z" style="fill:#91c3fe"/><rect x="393.97" y="294.03" width="8.92" height="18.41" style="fill:#387eee"/><rect x="456.65" y="294.03" width="8.92" height="18.41" style="fill:#387eee"/><path d="M500.92,294h5.77a3.15,3.15,0,0,1,3.15,3.15v12.11a3.15,3.15,0,0,1-3.15,3.15h-5.77a0,0,0,0,1,0,0V294A0,0,0,0,1,500.92,294Z" style="fill:#91c3fe"/><rect x="492" y="294.03" width="8.92" height="18.41" style="fill:#387eee"/><rect x="387.11" y="196.84" width="120.67" height="67.58" rx="8.53" style="fill:#387eee"/><rect x="434.11" y="54.08" width="26.68" height="17.11" rx="5.04" style="fill:#387eee"/><path d="M476.49,93.42a4.24,4.24,0,1,1-4.23-4.23A4.23,4.23,0,0,1,476.49,93.42Z" transform="translate(-24.81 -30.78)" style="fill:#4455a3"/><path d="M493.39,243.15v24.13a5.84,5.84,0,0,1-5.85,5.84H426.26a5.82,5.82,0,0,1-5.42-3.64,5.78,5.78,0,0,1-.42-2.2V243.15a5.83,5.83,0,0,1,5.84-5.84h61.28a5.83,5.83,0,0,1,5.8,5.15h0A3.82,3.82,0,0,1,493.39,243.15Z" transform="translate(-24.81 -30.78)" style="fill:#a6c8fa"/><rect x="395.61" y="247.2" width="14.1" height="7.02" rx="3.02" style="fill:#a6c8fa"/><rect x="415.23" y="247.2" width="14.1" height="7.02" rx="3.02" style="fill:#a6c8fa"/><rect x="434.85" y="247.2" width="14.1" height="7.02" rx="3.02" style="fill:#a6c8fa"/><rect x="454.48" y="247.2" width="14.1" height="7.02" rx="3.02" style="fill:#a6c8fa"/><path d="M505,240.81a3.51,3.51,0,1,1-3.51-3.5A3.51,3.51,0,0,1,505,240.81Z" transform="translate(-24.81 -30.78)" style="fill:#a6c8fa"/><path d="M514.35,240.81a3.51,3.51,0,1,1-3.51-3.5A3.51,3.51,0,0,1,514.35,240.81Z" transform="translate(-24.81 -30.78)" style="fill:#a6c8fa"/><path d="M523.75,240.81a3.51,3.51,0,1,1-3.51-3.5A3.51,3.51,0,0,1,523.75,240.81Z" transform="translate(-24.81 -30.78)" style="fill:#a6c8fa"/><circle cx="476.63" cy="220.13" r="3.51" style="fill:#a6c8fa"/><circle cx="486.03" cy="220.13" r="3.51" style="fill:#a6c8fa"/><circle cx="495.43" cy="220.13" r="3.51" style="fill:#a6c8fa"/><circle cx="476.63" cy="230.23" r="3.51" style="fill:#a6c8fa"/><circle cx="486.03" cy="230.23" r="3.51" style="fill:#a6c8fa"/><circle cx="495.43" cy="230.23" r="3.51" style="fill:#a6c8fa"/><path d="M516.92,278.93a6.08,6.08,0,1,1-6.08-6.08A6.08,6.08,0,0,1,516.92,278.93Z" transform="translate(-24.81 -30.78)" style="fill:#a6c8fa"/><rect x="439.96" y="312.44" width="14.98" height="7.32" style="fill:#a6c8fa"/><rect x="484.23" y="312.44" width="14.98" height="7.32" style="fill:#a6c8fa"/><rect x="395.17" y="312.44" width="14.98" height="7.32" style="fill:#a6c8fa"/><rect x="429.33" y="319.76" width="36.23" height="11.32" rx="2.78" style="fill:#4455a3"/><rect x="473.61" y="319.76" width="36.23" height="11.32" rx="2.78" style="fill:#4455a3"/><rect x="384.54" y="319.76" width="36.23" height="11.32" rx="2.78" style="fill:#4455a3"/><path d="M502.77,42.78h-61c-19.77,0-17.68,15-21.33,57.24V227.63h24.76V102.16a14.94,14.94,0,0,0-1.11-5.72c-1.58-3.87-5.19-9.51-12.8-9.84l3.86-31.88a8.53,8.53,0,0,1,8.47-7.5h57.32a8.53,8.53,0,0,1,8.47,7.5l3.86,31.88c-7.62.33-11.22,6-12.81,9.84a15.13,15.13,0,0,0-1.11,5.72V227.63H524.1V100C520.45,57.8,522.53,42.78,502.77,42.78Z" transform="translate(-24.81 -30.78)" style="fill:#91c3fe"/><circle cx="486.9" cy="153.5" r="8.5" style="fill:#4455a3"/><path d="M516.73,184.28a5,5,0,1,1-5-5A5,5,0,0,1,516.73,184.28Z" transform="translate(-24.81 -30.78)" style="fill:#589cff"/><path d="M488.74,126.48l-29.41,29.41a20.86,20.86,0,0,1-7.79-13.5l23.71-23.72A20.88,20.88,0,0,1,488.74,126.48Z" transform="translate(-24.81 -30.78)" style="fill:#edf6ff;opacity:0.05;mix-blend-mode:screen"/><path d="M493.21,139.4a19.7,19.7,0,0,1-.28,3.36l-17.31,17.31a19.7,19.7,0,0,1-3.36.28,20.93,20.93,0,0,1-6.51-1l26.43-26.43A20.93,20.93,0,0,1,493.21,139.4Z" transform="translate(-24.81 -30.78)" style="fill:#edf6ff;opacity:0.05;mix-blend-mode:screen"/><path d="M453,237.31l-32.18,32.17a5.78,5.78,0,0,1-.42-2.2V253.4l16.09-16.09Z" transform="translate(-24.81 -30.78)" style="fill:#edf6ff;opacity:0.2;mix-blend-mode:screen"/><path d="M472.63,237.31l-35.8,35.81H426.26a5.86,5.86,0,0,1-2-.35l35.45-35.46Z" transform="translate(-24.81 -30.78)" style="fill:#edf6ff;opacity:0.2;mix-blend-mode:screen"/><path d="M493.34,242.46h0l-30.65,30.65H451.08l35.82-35.81h.64A5.83,5.83,0,0,1,493.34,242.46Z" transform="translate(-24.81 -30.78)" style="fill:#edf6ff;opacity:0.2;mix-blend-mode:screen"/><path d="M493.39,263.38v3.9a5.84,5.84,0,0,1-5.85,5.84h-3.89Z" transform="translate(-24.81 -30.78)" style="fill:#edf6ff;opacity:0.2;mix-blend-mode:screen"/><circle cx="170.94" cy="176.71" r="170.94" style="fill:#4455a3"/><path d="M194.67,64.92a17.68,17.68,0,0,1,3,8.75c.19,2.28,0,4.63.72,6.81s2.54,4.24,4.83,4.22c2.8,0,4.63-3,5.29-5.71s.77-5.73,2.51-7.92c2.66-3.36,8.61-4.13,9.27-8.37.52-3.26-2.68-5.79-5.49-7.54-4.32-2.68-8.78-5.41-13.79-6.29a40.3,40.3,0,0,0-10.41,0c-3.19.28-18.87-.53-12.33,5.12C183.34,58.4,190.5,59,194.67,64.92Z" transform="translate(-24.81 -30.78)" style="fill:#a6c8fa"/><path d="M166.58,193.47a6.46,6.46,0,0,1,2.93,1.56,2.57,2.57,0,0,1,.45,3.08c-1,1.48-3.29.84-5,.3-8-2.51-16.76.89-25-.58a5.44,5.44,0,0,1-2.51-.94,2.27,2.27,0,0,1-.88-2.39c.86-2.58,11.4-2.37,13.69-2.52A45.69,45.69,0,0,1,166.58,193.47Z" transform="translate(-24.81 -30.78)" style="fill:#7a9af5"/><path d="M217.42,255.67c-3.59-.88-8.38-2.27-10.82-5.13-1.39-1.63-3.45-3.76-4.21-5.75-1.32-3.46-1.69-7.06-5.18-9.12-3.84-2.27-8.88-1.94-13-3-6.27-1.64-9.72-7.94-14.64-11.66-5.11-3.85-10.92-5.11-17.32-5.43-9.63-.48-17.89,3.23-27,5.39a20.44,20.44,0,0,1-10.81-.11c-2.92-1-6.43-2.36-5.32-6.17a5.1,5.1,0,0,1,2.9-3.06c1.32-.71,1.44-1.16,1.58-2.8.35-4-1.16-8-5-9.3-3.34-1.09-8.11-.92-9-4.32s3.22-5.72,4.11-9a5.08,5.08,0,0,0-9.46-3.57c-.62,1.26-.7,2.76-1.45,3.95-1.43,2.25-4.9,2.48-7.09,1s-3.22-4.27-3.44-6.92a17.78,17.78,0,0,1,5.64-14A23.48,23.48,0,0,1,102,160.53c6-.53,13.28,1.94,14.79,7.82.51,2,.29,4.05.58,6.06s1.28,4.16,3.2,4.82c3.47,1.18,6.34-3.37,6-7s-2.2-7.18-1.66-10.8c.72-4.82,5.32-7.88,8.74-11.36,4.69-4.77,7.58-11.13,12.57-15.59,4.68-4.19,10.83-6.35,17-7.58a10.52,10.52,0,0,0,4.7-1.69c1.31-1,2-3.15.88-4.44-.58-.7-1.51-1-2.18-1.62-2-1.85-.52-5.52,2-6.65s5.37-.62,8.09-.34,5.81.17,7.71-1.8c2.29-2.39,1.62-6.53-.54-9s-5.37-3.82-8.43-5.08-6.26-2.67-8.27-5.3c-1.78-2.34-2.93-5.79-5.83-6.22-2.12-.31-4,1.27-5.44,2.89a29.83,29.83,0,0,0-6.48,12.71c-.49,2.12-1.33,4.84-3.51,4.92-1.47.05-2.64-1.29-3.12-2.67s-.51-2.9-1-4.29c-1.61-4.69-8-7.43-7.57-12.36.33-4,5-6.06,9-6.24s8.25.6,11.81-1.22c1.87-1,3.57-2.61,5.66-2.5,2.65.15,4.28,3,6.75,4,3.71,1.44,7.89-2.51,7.68-6.48s-3.55-7.2-7.27-8.62a32.05,32.05,0,0,0-8.94-1.6l-20.44-1.72c-2.65-.22-5.53-.53-7.47-2.35-2.9-2.7,1.08-6.16-.72-7.91-1.59-1.55-12.54,4.07-14.31,5.23C103.94,64.29,97,71,89.56,83.24c-4.3,7.07-7.29,14.94-12.26,21.56-3.48,4.63-7.85,8.54-11.11,13.33-5.63,8.25-7.55,18.58-7.24,28.56s2.72,19.77,5.11,29.46c1.4,5.69,2.93,11.62,6.81,16,4.54,5.14,11.57,7.33,16.79,11.77,2.15,1.83,4.43,4.14,6.87,5.56,1.88,1.08,4,.27,5.63,2.27a5,5,0,0,1,.87,4.57c-.34,1-1,1.95-1.41,3-.93,2.4,1.2,4.2,2.91,5.62,3,2.5,7.12,3.14,11,3.26,3,.08,6.26,0,8.47,2,2.64,2.37,2.45,6.59,1.38,10-3.2,10.17-12.39,18.94-11,29.52.72,5.64,4.39,10.41,7.92,14.87,4.11,5.19,8.39,10.52,14.2,13.7,2.85,1.56,6.11,2.65,8.19,5.14,1.77,2.13,2.4,5,2.79,7.72,1.26,8.95.61,18.05,1.2,27.07s2.61,18.36,8.39,25.31c5.63,6.77,19.62,11,24,6.8.53-2.07-10.21-2.12-9.77-7.1.2-2.22,2-3.92,3.76-5.27,9.51-7.21,22-10.78,29.15-20.35,3.53-4.75,5.43-10.65,9.47-15,6.23-6.63,16.94-8.94,20.75-17.2,2.47-5.33,1.28-11.84,3.94-17.07,2.48-4.87,8-8,9.32-13.29C249.72,258.81,227.4,258.13,217.42,255.67Z" transform="translate(-24.81 -30.78)" style="fill:#79a9fd"/><path d="M268.12,86.83c3.3,1.64,6.79,3,9.76,5.17.83.61,1.7,1.52,1.46,2.52s-1.1,1.3-1.9,1.64a11.73,11.73,0,0,1-3.33,1,4,4,0,0,1-3.24-1c-.55-.55-.86-1.29-1.38-1.86a3.44,3.44,0,0,0-4.18-.61,8.46,8.46,0,0,1-1.11.68,2.57,2.57,0,0,1-2.67-.93,4.52,4.52,0,0,1-1-4,1.26,1.26,0,0,0,.05-.83,1.09,1.09,0,0,0-.48-.42c-2.05-1.16-4.51-5.13-.75-6C261.85,81.6,266.06,85.8,268.12,86.83Z" transform="translate(-24.81 -30.78)" style="fill:#a6c8fa"/><path d="M329.07,100.51a5.26,5.26,0,0,0-.9.43c-5.49,3.5,4.08,11.52,6.23,14.19s3.63,6.23,2.35,9.35c-1.5,3.7-6,5-10,5.54-.78-3.68-2.48-8.18-6.23-8.37-3.1-.16-5.28,2.84-7.1,5.36a52.75,52.75,0,0,1-13.92,13.26c-3.52,2.29-7.88,5.25-7.24,9.4.19,1.21.82,2.32,1,3.53.42,2.35-.76,4.66-1.91,6.76q-2.79,5.11-5.59,10.23c-.81,1.49-1.66,3.1-1.5,4.8.18,2,1.64,3.54,2.59,5.27,3.85,7-.58,16.49,3.51,23.34,1.72,2.87,4.73,4.84,6.25,7.83.87,1.7,1.23,3.71,2.54,5.1,3.33,3.53,9.22.5,14,1.18,2.23.32,4.24,1.48,6.39,2.13s4.78.66,6.34-1c1.24-1.3,1.5-3.36,2.86-4.55a6.92,6.92,0,0,1,3.06-1.29c3.75-.91,8.13-1.7,11.13.73,4.24,3.42,2.47,10.07,2.83,15.51.38,5.85,3.68,11.2,4.12,17s-1.91,11.27-4,16.62A230.83,230.83,0,0,0,335,299.33c-.38,1.8-.5,4.14,1.12,5a1.49,1.49,0,0,0,.39.13,171,171,0,0,0-7.48-203.93Z" transform="translate(-24.81 -30.78)" style="fill:#a6c8fa"/><path d="M317.84,112a2.41,2.41,0,0,0,.83.79,2.34,2.34,0,0,0,1,.13l4.27-.12c.35-2.59-2.45-4.38-4.82-5.46,1.06.26,2-1,1.92-2.06a4.73,4.73,0,0,0-1.67-2.76,35.24,35.24,0,0,0-7.48-5.66c-1.27-.71-2.71-1.51-3.06-2.91A3.34,3.34,0,0,1,311,90.34a8,8,0,0,1,4.49-.22,5.2,5.2,0,0,0,1.84.12A2.58,2.58,0,0,0,319,89.05a171,171,0,0,0-65.24-42.39c-.29.49.25.72.15,1.59-.16,1.48.31,1.89-.67,3.33-.82,1.2-2.33,1.76-2.65,3.33s.86,3,2,4.15l6.53,6.84a9.8,9.8,0,0,1,2.55,3.63c.27.85.31,1.76.6,2.59,1,2.89,4.49,3.9,7.49,4.51,0,2.32,2.93,3.71,5.15,3s3.78-2.63,5.19-4.48a2.23,2.23,0,0,0,.62-1.43c-.09-1-1.41-1.36-2.43-1.56s-2.25-1.1-1.75-2a1.61,1.61,0,0,1,1.34-.65c2.76-.22,5.32,1.58,7,3.79,2.18,2.86,3.11,7.31.59,9.88-1.14,1.16-2.83,1.78-3.65,3.19-1.76,3,1.88,7,.51,10.28a11.75,11.75,0,0,1-2.6,3c-.93,1-1.67,2.4-1.12,3.63.47,1,1.66,1.5,2.71,1.92,2.91,1.18,5.93,3.27,6.28,6.38a5.37,5.37,0,0,1-4.86,5.74c-2.22.12-5.12-.9-6.21,1a3.14,3.14,0,0,0,.8,3.5c.86.94,2,1.59,2.86,2.54a6,6,0,0,1,1.23,5.72,2.42,2.42,0,0,0-.21,1.57,1.88,1.88,0,0,0,1.44.94,14.22,14.22,0,0,0,9-.37,9.25,9.25,0,0,0,5.67-6.66c.62-3.52-1-7.8,1.48-10.34,1.07-1.08,2.83-1.74,3-3.25s-1.1-2.49-1.91-3.65-.7-3.35.72-3.35c.91,0,1.63,1,2.52.88s1.22-1.48,2.05-2,2,0,2.84.47C311.61,106.51,315.25,108.74,317.84,112Z" transform="translate(-24.81 -30.78)" style="fill:#a6c8fa"/><rect x="360.87" y="81.91" width="6.24" height="1.83" transform="translate(529.63 373.09) rotate(-133.5)" style="fill:#0c30d9"/><rect x="347.61" y="67.93" width="6.24" height="1.83" transform="translate(134.45 -263.75) rotate(46.5)" style="fill:#0c30d9"/><rect x="364.01" y="63.31" width="10.08" height="2.86" transform="translate(551.29 346.24) rotate(-133.5)" style="fill:#0c30d9"/><rect x="364.87" y="61.26" width="12.59" height="2.96" transform="translate(556.3 344.39) rotate(-133.5)" style="fill:#2257ee"/><rect x="342.48" y="87.13" width="1.53" height="4.19" transform="translate(489.97 368.86) rotate(-133.5)" style="fill:#0c30d9"/><rect x="346.79" y="83.31" width="1.53" height="3.66" transform="translate(500.2 365.09) rotate(-133.49)" style="fill:#0c30d9"/><rect x="329.46" y="43.11" width="22.53" height="30.34" transform="translate(123.64 -259.77) rotate(46.5)" style="fill:#a6c8fa"/><path d="M337.4,78.17,320.59,60.46l23.34-22.15L360.74,56ZM322.59,60.51l14.86,15.66L358.74,56,343.88,40.31Z" transform="translate(-24.81 -30.78)" style="fill:#fff"/><rect x="339.93" y="46.8" width="1.34" height="23" transform="translate(28.58 219.66) rotate(-43.5)" style="fill:#fff"/><rect x="325.24" y="57.71" width="30.7" height="1.4" transform="translate(28.52 219.71) rotate(-43.5)" style="fill:#fff"/><rect x="317.99" y="50.03" width="30.34" height="0.54" transform="translate(32.05 212.36) rotate(-43.5)" style="fill:#fff"/><rect x="321.78" y="54.02" width="30.34" height="0.54" transform="translate(30.38 216.1) rotate(-43.51)" style="fill:#fff"/><rect x="343.98" y="43.37" width="0.47" height="23" transform="translate(31.93 221.2) rotate(-43.49)" style="fill:#fff"/><rect x="347.59" y="39.95" width="0.47" height="23" transform="translate(35.28 222.75) rotate(-43.5)" style="fill:#fff"/><rect x="351.2" y="36.52" width="0.47" height="23" transform="translate(38.62 224.29) rotate(-43.49)" style="fill:#fff"/><rect x="329.53" y="57.08" width="0.47" height="23" transform="translate(18.53 215.02) rotate(-43.49)" style="fill:#fff"/><rect x="333.14" y="53.65" width="0.47" height="23.01" transform="translate(21.88 216.57) rotate(-43.5)" style="fill:#fff"/><rect x="336.75" y="50.23" width="0.47" height="23" transform="translate(25.23 218.11) rotate(-43.49)" style="fill:#fff"/><rect x="329.34" y="62" width="30.34" height="0.54" transform="translate(26.96 223.5) rotate(-43.51)" style="fill:#fff"/><rect x="333.13" y="65.99" width="30.34" height="0.54" transform="translate(25.26 227.2) rotate(-43.51)" style="fill:#fff"/><rect x="362.76" y="78.19" width="22.53" height="30.34" transform="translate(538.96 398.15) rotate(-133.5)" style="fill:#a6c8fa"/><path d="M377.32,73.49,394.13,91.2,370.8,113.36,354,95.65Zm14.82,17.66L377.27,75.49,356,95.7l14.87,15.66Z" transform="translate(-24.81 -30.78)" style="fill:#fff"/><rect x="373.32" y="81.98" width="1.34" height="23" transform="translate(13.57 252.38) rotate(-43.51)" style="fill:#fff"/><rect x="358.54" y="92.79" width="30.7" height="1.4" transform="translate(13.52 252.27) rotate(-43.5)" style="fill:#fff"/><rect x="366.42" y="101.06" width="30.34" height="0.54" transform="translate(10.23 259.72) rotate(-43.5)" style="fill:#fff"/><rect x="362.64" y="97.08" width="30.34" height="0.54" transform="translate(11.96 256.06) rotate(-43.51)" style="fill:#fff"/><rect x="377.37" y="78.56" width="0.47" height="23" transform="translate(16.93 253.93) rotate(-43.51)" style="fill:#fff"/><rect x="380.98" y="75.13" width="0.47" height="23" transform="translate(20.27 255.47) rotate(-43.51)" style="fill:#fff"/><rect x="384.59" y="71.7" width="0.47" height="23" transform="translate(23.63 257.02) rotate(-43.51)" style="fill:#fff"/><rect x="362.93" y="92.26" width="0.47" height="23" transform="translate(3.52 247.75) rotate(-43.51)" style="fill:#fff"/><rect x="366.54" y="88.84" width="0.47" height="23.01" transform="translate(6.87 249.29) rotate(-43.51)" style="fill:#fff"/><rect x="370.15" y="85.41" width="0.47" height="23" transform="translate(10.22 250.84) rotate(-43.51)" style="fill:#fff"/><rect x="355.07" y="89.1" width="30.34" height="0.54" transform="translate(15.37 248.66) rotate(-43.51)" style="fill:#fff"/><rect x="351.28" y="85.12" width="30.34" height="0.54" transform="translate(17.05 244.92) rotate(-43.5)" style="fill:#fff"/><path d="M350.28,93.59a5.06,5.06,0,0,0-.53-6.28l-4.24-4.48a5.07,5.07,0,0,0-6.25-.86Z" transform="translate(-24.81 -30.78)" style="fill:#2257ee"/><rect x="349.45" y="61.56" width="17.75" height="26.72" transform="translate(525.79 355.64) rotate(-133.5)" style="fill:#2257ee"/><path d="M371.48,69.38l2.64,2.79L354.74,90.55l-5.58-5.88-1,1,1.59,1.68a5.06,5.06,0,0,1,.53,6.28l-5-5.25-3,2.88-.53-.56,3-2.89,1.46-1.39L347.6,85,370,63.66l2.13-2,4.44,4.68-2.14,2-.86-.92Z" transform="translate(-24.81 -30.78)" style="fill:#606060;opacity:0.30000000000000004;mix-blend-mode:multiply"/><path d="M340.12,90a1.57,1.57,0,1,1,2.16,2.27A1.57,1.57,0,0,1,340.12,90Z" transform="translate(-24.81 -30.78)" style="fill:#a6c8fa"/><path d="M114.1,99H436.27A15.07,15.07,0,0,1,451.34,114v216.4a0,0,0,0,1,0,0H99a0,0,0,0,1,0,0V114A15.07,15.07,0,0,1,114.1,99Z" style="fill:#0c30d9"/><polygon points="492.3 375.65 58.08 375.65 99.04 330.43 451.34 330.43 492.3 375.65" style="fill:#79a9fd"/><path d="M506.06,417.48H93.94a11,11,0,0,1-11-11.05H517.11A11,11,0,0,1,506.06,417.48Z" transform="translate(-24.81 -30.78)" style="fill:#0c30d9"/><rect x="112.71" y="116.1" width="324.96" height="197.21" style="fill:#edf6ff"/><path d="M187.82,366.86H171.6a2.37,2.37,0,0,0-1.72,1l-2.54,3.88c-.39.61-.23,1.1.36,1.1h16.71a2.21,2.21,0,0,0,1.69-1.1l2.17-3.88C188.6,367.32,188.39,366.86,187.82,366.86Z" transform="translate(-24.81 -30.78)" style="fill:#f3f8fe"/><path d="M217.85,366.86H201.63a2,2,0,0,0-1.56,1l-1.94,3.88c-.31.61-.08,1.1.52,1.1h16.71a1.82,1.82,0,0,0,1.52-1.1l1.58-3.88C218.7,367.32,218.43,366.86,217.85,366.86Z" transform="translate(-24.81 -30.78)" style="fill:#f3f8fe"/><path d="M247.89,366.86H231.67a1.61,1.61,0,0,0-1.41,1l-1.35,3.88c-.22.61.09,1.1.68,1.1h16.72a1.5,1.5,0,0,0,1.35-1.1l1-3.88A.78.78,0,0,0,247.89,366.86Z" transform="translate(-24.81 -30.78)" style="fill:#f3f8fe"/><path d="M277.92,366.86H261.7a1.34,1.34,0,0,0-1.25,1l-.76,3.88a.86.86,0,0,0,.85,1.1h16.71a1.24,1.24,0,0,0,1.19-1.1l.41-3.88A.92.92,0,0,0,277.92,366.86Z" transform="translate(-24.81 -30.78)" style="fill:#f3f8fe"/><path d="M308,366.86H291.73a1.09,1.09,0,0,0-1.08,1l-.18,3.88a1,1,0,0,0,1,1.1H308.2a1,1,0,0,0,1-1.1L309,367.9A1.1,1.1,0,0,0,308,366.86Z" transform="translate(-24.81 -30.78)" style="fill:#f3f8fe"/><path d="M338,366.86H321.77a.91.91,0,0,0-.93,1l.41,3.88a1.23,1.23,0,0,0,1.18,1.1h16.72a.86.86,0,0,0,.85-1.1l-.77-3.88A1.32,1.32,0,0,0,338,366.86Z" transform="translate(-24.81 -30.78)" style="fill:#f3f8fe"/><path d="M368,366.86H351.8a.78.78,0,0,0-.77,1l1,3.88a1.49,1.49,0,0,0,1.35,1.1h16.71c.6,0,.9-.49.69-1.1l-1.36-3.88A1.61,1.61,0,0,0,368,366.86Z" transform="translate(-24.81 -30.78)" style="fill:#f3f8fe"/><path d="M398.05,366.86H381.83c-.57,0-.84.46-.61,1l1.59,3.88a1.82,1.82,0,0,0,1.52,1.1H401c.59,0,.82-.49.52-1.1l-1.94-3.88A2,2,0,0,0,398.05,366.86Z" transform="translate(-24.81 -30.78)" style="fill:#f3f8fe"/><path d="M428.09,366.86H411.87c-.58,0-.78.46-.46,1l2.18,3.88a2.19,2.19,0,0,0,1.69,1.1H432c.59,0,.75-.49.35-1.1l-2.53-3.88A2.37,2.37,0,0,0,428.09,366.86Z" transform="translate(-24.81 -30.78)" style="fill:#f3f8fe"/><path d="M182.54,376.18h-17a2.57,2.57,0,0,0-1.84,1.15l-2.78,4.26c-.43.66-.28,1.21.34,1.21H178.8a2.4,2.4,0,0,0,1.8-1.21l2.39-4.26C183.35,376.69,183.15,376.18,182.54,376.18Z" transform="translate(-24.81 -30.78)" style="fill:#f3f8fe"/><path d="M214,376.18H197a2.09,2.09,0,0,0-1.66,1.15l-2.14,4.26c-.33.66-.1,1.21.52,1.21h17.52a2,2,0,0,0,1.62-1.21l1.74-4.26C214.87,376.69,214.59,376.18,214,376.18Z" transform="translate(-24.81 -30.78)" style="fill:#f3f8fe"/><path d="M245.44,376.18h-17a1.74,1.74,0,0,0-1.49,1.15l-1.49,4.26c-.23.66.08,1.21.7,1.21H243.7a1.63,1.63,0,0,0,1.44-1.21l1.09-4.26A.84.84,0,0,0,245.44,376.18Z" transform="translate(-24.81 -30.78)" style="fill:#f3f8fe"/><path d="M276.89,376.18h-17a1.42,1.42,0,0,0-1.31,1.15l-.84,4.26a.93.93,0,0,0,.88,1.21h17.52a1.34,1.34,0,0,0,1.26-1.21l.44-4.26A1,1,0,0,0,276.89,376.18Z" transform="translate(-24.81 -30.78)" style="fill:#f3f8fe"/><path d="M308.33,376.18h-17a1.18,1.18,0,0,0-1.14,1.15l-.2,4.26a1.11,1.11,0,0,0,1.07,1.21h17.53a1.11,1.11,0,0,0,1.06-1.21l-.19-4.26A1.18,1.18,0,0,0,308.33,376.18Z" transform="translate(-24.81 -30.78)" style="fill:#f3f8fe"/><path d="M339.78,376.18h-17a1,1,0,0,0-1,1.15l.45,4.26a1.34,1.34,0,0,0,1.25,1.21h17.53a.94.94,0,0,0,.88-1.21l-.84-4.26A1.44,1.44,0,0,0,339.78,376.18Z" transform="translate(-24.81 -30.78)" style="fill:#f3f8fe"/><path d="M371.23,376.18h-17a.85.85,0,0,0-.8,1.15l1.1,4.26A1.62,1.62,0,0,0,356,382.8h17.53c.62,0,.93-.55.7-1.21l-1.49-4.26A1.74,1.74,0,0,0,371.23,376.18Z" transform="translate(-24.81 -30.78)" style="fill:#f3f8fe"/><path d="M402.68,376.18h-17c-.61,0-.88.51-.62,1.15l1.74,4.26a2,2,0,0,0,1.61,1.21H406c.62,0,.85-.55.52-1.21l-2.14-4.26A2.11,2.11,0,0,0,402.68,376.18Z" transform="translate(-24.81 -30.78)" style="fill:#f3f8fe"/><path d="M434.13,376.18h-17c-.6,0-.8.51-.44,1.15l2.38,4.26a2.42,2.42,0,0,0,1.8,1.21h17.53c.62,0,.77-.55.33-1.21L436,377.33A2.53,2.53,0,0,0,434.13,376.18Z" transform="translate(-24.81 -30.78)" style="fill:#f3f8fe"/><path d="M177.07,386.57H159.23a2.75,2.75,0,0,0-2,1.26l-3.07,4.71c-.47.73-.34,1.33.32,1.33H173a2.63,2.63,0,0,0,1.93-1.33l2.62-4.71C177.89,387.13,177.7,386.57,177.07,386.57Z" transform="translate(-24.81 -30.78)" style="fill:#f3f8fe"/><path d="M210.09,386.57H192.26a2.29,2.29,0,0,0-1.78,1.26l-2.35,4.71c-.36.73-.14,1.33.52,1.33h18.43a2.13,2.13,0,0,0,1.72-1.33l1.92-4.71C211,387.13,210.72,386.57,210.09,386.57Z" transform="translate(-24.81 -30.78)" style="fill:#f3f8fe"/><path d="M376.6,387.28l2,5.84c.14.41-.68.75-1.83.75H223.68c-1.15,0-2-.34-1.82-.75l2-5.84c.14-.39,1.16-.71,2.27-.71H374.32C375.44,386.57,376.46,386.89,376.6,387.28Z" transform="translate(-24.81 -30.78)" style="fill:#f3f8fe"/><path d="M408.23,386.57H390.39c-.63,0-.91.56-.62,1.26l1.93,4.71a2.15,2.15,0,0,0,1.73,1.33h18.43c.65,0,.88-.6.51-1.33L410,387.83A2.28,2.28,0,0,0,408.23,386.57Z" transform="translate(-24.81 -30.78)" style="fill:#f3f8fe"/><path d="M440.76,386.43H422.94c-.63,0-.83.56-.44,1.26l2.64,4.7a2.59,2.59,0,0,0,1.93,1.33h18.41c.66,0,.79-.6.31-1.33l-3.06-4.7A2.79,2.79,0,0,0,440.76,386.43Z" transform="translate(-24.81 -30.78)" style="fill:#f3f8fe"/><g style="clip-path:url(#clip-path)"><path d="M157.91,146.63c1.39,7.68,7.7,12.82,14.26,15.13,8.1,2.86,13.52,1.06,29.08,5.77,12.44,3.76,14.14,9.34,21.95,8.23,10.33-1.48,15.85-12.48,16.18-13.17,5.14-10.62.46-20.72-.27-22.23-5-10.41-17.27-17.43-26.61-15.08-8.76,2.19-8,10.86-17.29,13.71-12.16,3.75-11.79-7.68-21.94-4.15C171.05,135.62,156.63,139.51,157.91,146.63Z" transform="translate(-24.81 -30.78)" style="fill:#0c30d9"/><path d="M183.45,173.86c4.88-2.6,11.8,1.88,14,3.29.62.4,10.82,7.2,10.42,16.74-.19,4.63-2.67,4.75-5.21,12.07-3.4,9.79-.22,13.22-3.56,18.1-3.69,5.38-12.09,7.86-19.21,6-10.62-2.72-16.08-14.43-14.54-22.22,1.21-6.14,5.93-5.6,10.7-14.54C181.47,183.15,178.54,176.47,183.45,173.86Z" transform="translate(-24.81 -30.78)" style="fill:#0c30d9"/><path d="M221.12,186.9c-4.24-.27-8.37,3-10,7-2.28,5.54.06,13.17,6.11,15.31a11.16,11.16,0,0,0,13.14-5.28C233.81,197.21,228,187.35,221.12,186.9Z" transform="translate(-24.81 -30.78)" style="fill:#0c30d9"/><path d="M322.68,216.54c-1.71-2.52-5.38-3.38-8.29-2.56-4.09,1.17-8.44,6.61-7,11,1.25,3.68,6.5,5,9.86,4.34C322.53,228.24,325.48,220.64,322.68,216.54Z" transform="translate(-24.81 -30.78)" style="fill:#0c30d9"/><path d="M338.05,219.31c.23-1.95-3.47-4-6-4.05-3.51-.12-7.17,2-7,4.92.12,2.43,2.91,4.47,5.72,4.73C335.16,225.33,337.68,222.53,338.05,219.31Z" transform="translate(-24.81 -30.78)" style="fill:#0c30d9"/><path d="M158.84,206.66c-3.29,6.91-1.75,14.92,3.57,23.32,6,9.44,19.53,3.1,28.8,13.16s5,26.95,4.67,28.26c-.24.85-5.78,19.9-22.5,23.6-13.63,3-24.8-6.37-29.63-10.43-16.24-13.64-22.23-37.06-16.74-55.69,1.29-4.36-2.49-53.65,23.48-49.89C162.87,180.78,164.55,194.65,158.84,206.66Z" transform="translate(-24.81 -30.78)" style="fill:#0c30d9"/><path d="M205.86,368.5l-2.41-.23c.06-.57,5.78-58.32,29.89-87.62,8.39-10.2,18.77-21.07,28.8-31.59,18.87-19.77,38.38-40.21,45.65-57.14,11-25.58,4.37-68.46,4.3-68.89l2.39-.37c.28,1.78,6.78,44-4.48,70.21-7.43,17.33-27.1,37.93-46.11,57.86-10,10.48-20.35,21.32-28.69,31.46C211.56,310.92,205.91,367.93,205.86,368.5Z" transform="translate(-24.81 -30.78)" style="fill:#0c30d9"/><path d="M131.76,140c-.46-.62-1-1.24-1.49-1.86l.73-.63c.55.63,1.06,1.28,1.54,1.91Z" transform="translate(-24.81 -30.78)" style="fill:#0c30d9"/><path d="M274.2,203.9c-1.62,0-3.24-.07-4.81-.18l.06-1c1.56.11,3.16.17,4.76.18Zm3.85-.05,0-1c1.56-.06,3.16-.16,4.75-.29l.08,1C281.24,203.7,279.63,203.8,278.05,203.85Zm-12.5-.48c-1.62-.2-3.23-.44-4.77-.74l.18-.94c1.52.29,3.1.53,4.7.72Zm21.13-.22-.12-1c1.55-.19,3.14-.43,4.72-.7l.16.95C289.85,202.72,288.24,203,286.68,203.15ZM257,201.8c-1.58-.4-3.13-.86-4.63-1.37l.31-.91c1.47.5,3,.95,4.56,1.35Zm38.21-.08-.2-.94c1.57-.33,3.13-.7,4.65-1.09l.24.94C298.38,201,296.81,201.39,295.22,201.72Zm-46.45-2.66c-1.5-.63-3-1.32-4.37-2.07l.45-.85c1.38.73,2.82,1.41,4.29,2Zm-7.71-4c-.5-.31-1-.64-1.49-1l-2.5-1.71.55-.8,2.5,1.71c.48.33,1,.65,1.45,1Zm-7.14-4.84-3.95-2.7.54-.8,4,2.7Zm-7.12-4.82c-1.38-.91-2.71-1.77-4-2.58l.51-.82c1.31.82,2.64,1.68,4,2.59Zm-7.27-4.56c-1.46-.85-2.82-1.6-4.16-2.3l.44-.85c1.36.7,2.73,1.45,4.21,2.32Zm-7.58-4c-1.47-.66-2.9-1.25-4.39-1.79l.33-.91c1.51.55,3,1.15,4.46,1.82Zm-8-3c-1.47-.45-3-.86-4.59-1.22l.22-.94c1.6.37,3.16.78,4.65,1.23Zm-8.31-2c-1.48-.27-3.06-.53-4.69-.76l.13-.95c1.64.23,3.24.48,4.74.76Zm-8.47-1.23c-1.52-.17-3.1-.32-4.75-.46l.08-1c1.67.14,3.27.29,4.77.46Zm-8.56-.74c-1.53-.1-3.11-.19-4.76-.27l0-1c1.66.08,3.25.17,4.79.27Zm-8.58-.43-4.78-.15,0-1c1.65,0,3.24.09,4.79.15Zm-8.61-.23c-1.74,0-3.31-.08-4.78-.13l0-1c1.47.06,3,.1,4.7.13l.07.49Zm-8.62-.32c-1.74-.11-3.35-.24-4.79-.4l.11-1c1.42.16,3,.29,4.74.39ZM144.2,168a24.68,24.68,0,0,1-4.71-1.22l.35-.9a23.55,23.55,0,0,0,4.53,1.17Zm-8.07-3.45a5.57,5.57,0,0,1-1.16-3.71c0-.38,0-.77.06-1.18l1,.09c0,.38-.05.74-.05,1.09a4.66,4.66,0,0,0,.94,3.11Zm.39-8.57-1-.13a29.91,29.91,0,0,0,.34-4.12c0-.19,0-.38,0-.57l1,0c0,.2,0,.4,0,.6A30.32,30.32,0,0,1,136.52,156Zm-1.1-8.51a19.22,19.22,0,0,0-1.66-4.36l.86-.44a20.42,20.42,0,0,1,1.74,4.57Z" transform="translate(-24.81 -30.78)" style="fill:#0c30d9"/><path d="M303.81,199.53l-.28-.92c1.45-.45,2.26-.74,2.26-.74l.34.9S305.28,199.08,303.81,199.53Z" transform="translate(-24.81 -30.78)" style="fill:#0c30d9"/><path d="M240.25,199.11c6.37-1.08,8.59,5.79,18.6,9.71,15.28,6,27.83-3.07,29.94.4,3.19,5.26-32.41,32-53.8,59.06a153.27,153.27,0,0,0-23.46,42.47c-4.6,11.75-10.63,27.13-11.73,47.73-1.2,22.4,4.61,29-.81,35.19-9.86,11.18-44.09,6.24-61.07-14.16-21.44-25.74-11.2-71,6.06-78.07,9.42-3.83,15.8,5.8,30.74,2,12-3,24.36-13.45,27.91-26.29s-4.86-17-3.23-40.05c.53-7.6,1.5-19.34,8.49-22.65,4.82-2.28,7.61,1.76,14.16,0C232.09,211.78,232.3,200.46,240.25,199.11Z" transform="translate(-24.81 -30.78)" style="fill:#90b7ff"/><path d="M245.1,126.71c-3.65,7.87,6.62,15.21,2.43,28.31-3.35,10.48-11.9,11.94-11.73,19.42.22,9.92,15.49,16.83,19.41,18.6,12.77,5.78,35,9.59,45.31-2,3.57-4,4.32-10,5.66-21.84,2.58-22.68,3.87-34-1.21-41.26C292.27,109.85,251.3,113.36,245.1,126.71Z" transform="translate(-24.81 -30.78)" style="fill:#90b7ff"/><path d="M464.33,207.71c-7.42,5.55-51,11.38-78.07,13.16-15.94,1-31.57,3.16-44,4.94-10.5,1.51-20.43,5.71-29.39,11.28-9.33,5.8-16.92,13.71-26.87,18.58-4.51,2.22-9.29,4-13.55,6.69-4.9,3.12-7.11,7.39-10.53,11.88a29.38,29.38,0,0,1-13.72,9.92c-3.35,1.15-8.44,1.89-10.67,5-2.95,4.1.71,8.59,2.8,12.25a16.48,16.48,0,0,1,2.09,11.84c-1.59,6.51-7.58,10.38-11.51,15.38a65.18,65.18,0,0,0-11.08,20.67c-2.94,9.54-2.64,20.43,2.56,29,4.26,7,11.33,11.77,18.53,15.67,7.43,4,15.32,7.33,23.64,8.73,4.35.73,9,.88,13-1.15,5.15-2.65,5.14-8.2,6-13.34.64-4,2.51-6.77,4.59-9.51a52.9,52.9,0,0,0,4.69-6.7c3.18-5.85,4.41-12.66,4.58-19.26.1-3.61-.05-7.4,1.57-10.64,1.4-2.8,4-4.81,6-7.17,4.82-5.51,3.1-11.36-2.69-15.21-7.89-5.25-16.63-10.55-21.42-19.11-1.56-2.79-1.86-6.68.45-8.9,1.64-1.57,4.09-1.87,6.36-2.08L305,288c10-.94,6.88-11.48,2.41-17a8.1,8.1,0,0,1-1.67-2.55c-.45-1.49.17-3.08.84-4.48,2.91-6.1,7.16-11.22,11.63-16.23,6.43-7.21,14.95-14.72,24.88-16.15,12.18-1.75,28.55-2.83,44.37-3.87,30.55-2,70.33-11.34,79.13-17.92Z" transform="translate(-24.81 -30.78)" style="fill:#0c30d9"/><path d="M295.79,214.93l-.63-2.33c19.29-5.24,36.38-3.73,51.46-2.38a190.17,190.17,0,0,0,20.56,1.1c19-.43,99.14-7.42,114.87-31.76l2,1.31c-16.45,25.48-96.35,32.4-116.84,32.86a188.85,188.85,0,0,1-20.82-1.11C331.53,211.3,314.67,209.8,295.79,214.93Z" transform="translate(-24.81 -30.78)" style="fill:#0c30d9"/><path d="M392.94,210.12l-2.29-.74c6.73-21.15,5-65.95.06-76.19l2.17-1.05C398.1,143,400,188.06,392.94,210.12Z" transform="translate(-24.81 -30.78)" style="fill:#0c30d9"/><path d="M378,178.44c-11.55,0-23.7-.46-34.74-.87-12.5-.47-23.3-.88-29.67-.47l-.15-2.4c6.49-.42,17.34,0,29.91.46,26.6,1,59.71,2.24,74.58-3.23l4.25-1.56c20.47-7.52,39.81-14.62,44.33-18.64l1.6,1.81c-4.86,4.32-23.51,11.16-45.1,19.09l-4.25,1.57C409.77,177.51,394.51,178.44,378,178.44Z" transform="translate(-24.81 -30.78)" style="fill:#0c30d9"/><rect x="294.42" y="149.44" width="7.79" height="5.06" style="fill:#f74234"/><rect x="319.88" y="165.61" width="6.42" height="5.06" transform="translate(114.56 451.86) rotate(-87.2)" style="fill:#f74234"/><polygon points="309.51 135.36 309.23 141.11 304.17 140.87 304.44 135.32 309.51 135.36" style="fill:#f74234"/><polygon points="321.27 136.97 320.8 141.32 311.55 140.87 311.78 136.17 321.27 136.97" style="fill:#f74234"/><rect x="432.27" y="170.6" width="4.7" height="9.26" transform="translate(371.63 611.51) rotate(-107.28)" style="fill:#f74234"/><rect x="438.34" y="190.1" width="4.7" height="9.26" transform="translate(360.88 642.59) rotate(-107.28)" style="fill:#f74234"/><polygon points="333.07 137.36 332.86 141.84 323.61 141.39 323.84 136.69 333.07 137.36" style="fill:#f74234"/><polygon points="289.22 165.79 291.49 158.33 296.25 159.55 294.07 167.26 289.22 165.79" style="fill:#f74234"/><rect x="319.74" y="154.51" width="7.79" height="5.06" transform="translate(455.87 -197.37) rotate(90)" style="fill:#f74234"/><polygon points="306.01 157.22 305.79 149.44 311.07 149.44 311.07 157.22 306.01 157.22" style="fill:#f74234"/><rect x="339.13" y="181.58" width="6.88" height="5.06" transform="translate(537.64 -167.46) rotate(96.17)" style="fill:#f74234"/><polygon points="345.71 151.25 352.6 151.25 352.85 156.31 345.71 156.31 345.71 151.25" style="fill:#f74234"/><polygon points="360.85 150.34 360.85 157.22 355.14 157.51 355.14 150.34 360.85 150.34" style="fill:#f74234"/><polygon points="382.86 131.96 383.82 138.54 378.17 139.37 377.17 132.56 382.86 131.96" style="fill:#f74234"/><polygon points="391.37 132.18 392.1 137.14 386.45 137.97 385.76 133.25 391.37 132.18" style="fill:#f74234"/><rect x="409.53" y="179.18" width="5.02" height="5.71" transform="matrix(-0.15, -0.99, 0.99, -0.15, 267, 585.37)" style="fill:#f74234"/><rect x="401.44" y="154.19" width="5.02" height="5.71" transform="translate(282.46 548.74) rotate(-98.36)" style="fill:#f74234"/><polygon points="401.49 129.56 402.68 134.17 395.09 136.53 393.6 131.75 401.49 129.56" style="fill:#f74234"/><polygon points="400.8 144.63 402.52 149.35 394.7 151.78 393.21 146.99 400.8 144.63" style="fill:#f74234"/><polygon points="424.62 136.49 426.57 141.12 418.88 143.93 417.16 139.22 424.62 136.49" style="fill:#f74234"/><rect x="430.66" y="156.96" width="5.02" height="7.95" transform="translate(383.39 591.58) rotate(-107.28)" style="fill:#f74234"/><polygon points="380.87 157.22 375.88 157.87 375.51 149.93 380.52 149.7 380.87 157.22" style="fill:#f74234"/><rect x="378.74" y="156.6" width="6.88" height="5.71" transform="translate(197.92 510.85) rotate(-90)" style="fill:#f74234"/><polygon points="355.17 160.69 361.45 161.17 360.81 167.04 354.55 166.37 355.17 160.69" style="fill:#f74234"/><rect x="399.86" y="190.89" width="6.3" height="5.71" transform="translate(789.67 338.03) rotate(177.37)" style="fill:#f74234"/><polygon points="322.78 157.22 322.78 150.34 327.84 150.78 327.84 157.22 322.78 157.22" style="fill:#f74234"/><rect x="355.28" y="181.47" width="5.76" height="5.06" transform="translate(534.62 -195.53) rotate(92.8)" style="fill:#f74234"/><rect x="439.28" y="154.47" width="5.76" height="5.06" transform="translate(418.33 -342.99) rotate(70.57)" style="fill:#f74234"/><rect x="448.28" y="188.47" width="5.76" height="5.06" transform="translate(-61.19 111.89) rotate(-17.28)" style="fill:#f74234"/><rect x="363.19" y="167.76" width="4.5" height="5.92" transform="translate(511.35 -225.51) rotate(90)" style="fill:#f74234"/><rect x="353.9" y="167.76" width="5.76" height="5.06" transform="translate(519.47 -208.54) rotate(92.8)" style="fill:#f74234"/><polygon points="337.96 156.54 338.24 150.78 343.29 151.25 343.02 156.78 337.96 156.54" style="fill:#f74234"/><polygon points="304.45 175.18 288.72 175.18 288.72 170.86 304.45 171.09 304.45 175.18" style="fill:#f74234"/><polygon points="323.38 177.18 308.7 175.59 309.2 171.02 323.9 172.44 323.38 177.18" style="fill:#f74234"/><polygon points="276.57 194.22 266.71 205.62 263.16 202.7 272.55 191.3 276.57 194.22" style="fill:#f74234"/><polygon points="263.5 209.51 254.11 220.91 250.55 217.37 259.95 206.59 263.5 209.51" style="fill:#f74234"/><polygon points="360.23 141.81 345.46 141.81 345.46 137.21 360.23 136.88 360.23 141.81" style="fill:#f74234"/><polygon points="341.34 177.83 326.6 177.11 326.82 172.52 341.93 173.26 341.34 177.83" style="fill:#f74234"/><polygon points="389.42 172.7 374.81 174.85 374.02 169.48 388.7 167.78 389.42 172.7" style="fill:#f74234"/><polygon points="408.14 169.69 393.95 171.78 393.09 165.94 407.7 163.79 408.14 169.69" style="fill:#f74234"/><polygon points="350.8 177.23 345.26 177.23 345.26 171.69 350.8 171.42 350.8 177.23" style="fill:#f74234"/><polygon points="359.52 176.93 353.39 176.93 353.39 171.42 359.52 171.62 359.52 176.93" style="fill:#f74234"/><polygon points="299.88 219.37 308.54 209.95 315.25 214.83 322.78 207.69 327.84 212.66 321.35 219.37 322.78 222.6 338.75 206.34 345.46 211.53 322.78 237.29 325.31 240.68 311.07 255.37 294.42 241.36 304.45 230.85 299.88 219.37" style="fill:#f74234"/><path d="M319.23,282.08c.27,0,12.42,9.94,12.42,9.94l-18.11,23.73L300.3,305.13l4.17-5.88,7.35,5.88,4.15-5.88-3.66-3,6.07-8L316,286.15Z" transform="translate(-24.81 -30.78)" style="fill:#f74234"/><path d="M435.86,239.87c-17.64-3.15-34.26,1.65-41.82,4.66C383,249,374.94,253.74,373.12,263c-1.34,6.76,2.27,15.44,7.67,17,7,2.08,11.15-9.67,22.4-9.95,7.26-.18,8.16,4.64,21.16,9.43,8.84,3.26,17.2,6.34,24.88,3,10.06-4.37,17.13-19,12.72-29.33C458,243.81,446.29,241.73,435.86,239.87Z" transform="translate(-24.81 -30.78)" style="fill:#0c30d9"/><path d="M305.48,375.69V375c0-1.36,0-2.77.1-4.2l1,0c-.07,1.42-.1,2.82-.1,4.16v.65Zm1.3-8.65-1-.08c.13-1.59.29-3.22.5-4.83l.95.12C307.07,363.85,306.91,365.46,306.78,367Zm1-8.59-1-.16c.26-1.61.56-3.21.88-4.77l.94.2C308.36,355.26,308.07,356.85,307.82,358.45Zm1.71-8.48-.94-.23c.39-1.58.82-3.16,1.28-4.68l.92.27C310.34,346.85,309.91,348.41,309.53,350Zm2.44-8.29-.91-.32c.53-1.54,1.11-3.07,1.71-4.54l.89.37C313.07,338.64,312.5,340.15,312,341.68Zm3.24-8-.88-.41c.69-1.48,1.44-2.94,2.2-4.33l.85.47C316.62,330.77,315.89,332.21,315.21,333.67Zm4.11-7.57-.82-.52c.81-1.28,1.65-2.52,2.51-3.7l.23-.31.78.57-.23.31C320.94,323.61,320.11,324.84,319.32,326.1Zm5-7.12-.79-.56c.87-1.23,1.8-2.55,2.77-3.95l.8.55Zm5-7.14-.79-.55,2.73-4,.8.54Zm4.92-7.19-.8-.54,2.72-4,.8.54Zm4.88-7.2-.8-.54,2.71-4,.8.54Zm4.87-7.22-.8-.54,2.69-4,.81.54Zm4.85-7.22-.8-.54,2.7-4,.8.54Zm4.86-7.22-.8-.54,2.7-4,.8.54Zm4.86-7.22-.8-.54c.92-1.37,1.83-2.71,2.71-4l.8.54C360.33,265.86,359.42,267.2,358.5,268.57Zm4.88-7.2-.8-.55,2.74-4,.79.55Q364.81,259.27,363.38,261.37Zm4.93-7.17-.79-.55c1-1.47,2-2.8,2.79-4l.78.56C370.26,251.41,369.33,252.74,368.31,254.2Zm5.07-7.06-.77-.59c.37-.48.7-.9,1-1.24A15.09,15.09,0,0,1,376,243l.59.76a14.41,14.41,0,0,0-2.28,2.16C374.06,246.26,373.74,246.67,373.38,247.14Zm6.42-5.42-.46-.85a42.7,42.7,0,0,1,4.42-2.07l.36.9A40.8,40.8,0,0,0,379.8,241.72Zm7.92-3.33-.3-.92c1.45-.48,3-.94,4.66-1.38l.25.93C390.71,237.45,389.16,237.91,387.72,238.39Zm8.34-2.3-.22-.94c1.53-.35,3.13-.69,4.74-1l.18.95C399.16,235.41,397.58,235.74,396.06,236.09Zm8.5-1.67-.16-.95c1.58-.27,3.17-.51,4.78-.73l.13.95C407.72,233.92,406.13,234.16,404.56,234.42Zm8.58-1.22-.12-1c1.61-.19,3.21-.37,4.82-.52l.09,1C416.33,232.83,414.73,233,413.14,233.2Zm8.63-.86-.08-1,.78-.06c1.25-.1,2.57-.25,4-.47l.14,1c-1.45.21-2.8.37-4,.46Zm8.67-1.19-.18-1c1.46-.28,3-.62,4.71-1l.21.94C433.51,230.52,431.91,230.86,430.44,231.15Zm8.51-1.94-.23-.93c1.53-.39,3.08-.81,4.66-1.24l.26.93C442.05,228.41,440.49,228.82,439,229.21Zm8.41-2.3-.27-.93c1.54-.45,3.09-.91,4.63-1.38l.28.92Q449.69,226.24,447.36,226.91Zm8.34-2.54-.29-.92c1.55-.49,3.09-1,4.6-1.49l.3.92C458.79,223.38,457.26,223.88,455.7,224.37Zm8.29-2.71-.31-.92c1.56-.52,3.09-1.05,4.57-1.56l.31.91C467.08,220.61,465.55,221.13,464,221.66Zm8.23-2.85-.32-.91,4.55-1.62.33.9C475.35,217.7,473.83,218.25,472.22,218.81Zm8.2-3-.34-.9,4.53-1.69.35.9Z" transform="translate(-24.81 -30.78)" style="fill:#0c30d9"/><path d="M363.68,275.46c3.19.57,2.17,7,8.07,10.86,6.56,4.3,15.16,1.2,15.66,1,5.68-2.15,5.48-5.4,9.59-7.32,8.7-4.07,17.21,7,33.82,11.86,16.31,4.78,21.3-2,30.05,2,18.57,8.58,27.19,53.57,10.6,81.29-28.71,47.95-129.58,38.62-148.69,6.31A46.78,46.78,0,0,1,316.47,354c.35-2.55-.41-7.83,11.53-28,9.51-16,13.55-15.16,20.57-27.11C358.11,282.67,359.66,274.75,363.68,275.46Z" transform="translate(-24.81 -30.78)" style="fill:#90b7ff"/></g><rect x="112.71" y="116.1" width="324.96" height="197.21" style="fill:#edf6ff;opacity:0.6000000000000001;mix-blend-mode:screen"/><rect x="174.43" y="258.69" width="12.4" height="3.2" rx="0.94" style="fill:#03072d"/><rect x="174.4" y="262.44" width="3.03" height="1.2" style="fill:#03072d"/><rect x="179.1" y="262.44" width="3.03" height="1.2" style="fill:#03072d"/><rect x="183.81" y="262.44" width="3.03" height="1.2" style="fill:#03072d"/><rect x="171.93" y="231.46" width="17.4" height="15.43" rx="3.14" style="fill:#f74234"/><rect x="170.61" y="236.94" width="1.32" height="4.48" style="fill:#03072d"/><rect x="169.54" y="238.16" width="1.07" height="2.03" style="fill:#03072d"/><rect x="189.34" y="236.94" width="1.32" height="4.48" style="fill:#03072d"/><path d="M213.57,285l-3.81-5.88-4.31,4.15-4.32-4.15L197.32,285a1.33,1.33,0,0,0,.16,1.65l2.71,2.8H210.7l2.71-2.8A1.33,1.33,0,0,0,213.57,285Z" transform="translate(-24.81 -30.78)" style="fill:#f74234"/><polygon points="182.96 353.82 180.86 359.12 178.61 353.82 178.61 266.04 182.96 266.04 182.96 353.82" style="fill:#001a5d"/><polygon points="158.32 354.33 155.16 359.2 154.36 353.37 175.13 265.19 179.09 266.15 158.32 354.33" style="fill:#001a5d"/><polygon points="203.2 354.37 206.44 359.22 207.32 353.37 186.56 265.19 182.44 266.19 203.2 354.37" style="fill:#001a5d"/><path d="M180.26,222.22H181a.86.86,0,0,1,.86.86v6.14a0,0,0,0,1,0,0H179.4a0,0,0,0,1,0,0v-6.14A.86.86,0,0,1,180.26,222.22Z" style="fill:#f74234"/><rect x="174.43" y="264.2" width="12.4" height="2.09" rx="0.76" style="fill:#001a67"/><path d="M200.39,270c0-2.84,2.49-9.82,2.49-9.82a1.37,1.37,0,0,1,1.33-1h2.47a1.36,1.36,0,0,1,1.33,1s2.49,7,2.49,9.82c0,1-.74,16.18-.74,16.18a1.54,1.54,0,0,1-1.53,1.53h-5.57a1.54,1.54,0,0,1-1.53-1.53S200.39,270.92,200.39,270Z" transform="translate(-24.81 -30.78)" style="fill:#aa1e13"/><path d="M203.81,284a1.79,1.79,0,1,0,1.78-1.79A1.79,1.79,0,0,0,203.81,284Z" transform="translate(-24.81 -30.78)" style="fill:#03072d"/><path d="M202.61,270a2.84,2.84,0,1,0,2.84-2.84A2.84,2.84,0,0,0,202.61,270Z" transform="translate(-24.81 -30.78)" style="fill:#f74234"/><path d="M175.84,327.35c.8,3.45-.31,4.15,0,5.42a6.56,6.56,0,0,1,0,3.59c-.53,1.23.19,1.48.36,1.19a12.69,12.69,0,0,0,1.17-3c.11-.42.58-.53.87.25a2.35,2.35,0,0,1-.23,2.27c-.4.46-1.41-.29-1.52.14-.21.88,1.87.71,1.87.71s1.45-.74,1.54-1.15a12.5,12.5,0,0,0,.58-3.62c-.13-1-1.21-2.59-1.32-3.34-.18-1.23-.4-3.28-.4-3.28Z" transform="translate(-24.81 -30.78)" style="fill:#ffa988"/><path d="M179.76,329.52s-.63-14.27-1.56-19c-.58-3-5,2.8-5,2.8l2.45,17.12Z" transform="translate(-24.81 -30.78)" style="fill:#4741ad"/><polygon points="137.82 351.85 137.21 356.29 140.33 356.68 141.58 351.68 137.82 351.85" style="fill:#f9685d"/><path d="M173.38,317.61l-12.56-.2c.44,3.57,5.09,27.72,4.91,38.86s-4.54,28.47-4.54,28.47h5.66s6.76-20.14,7.74-30.08S173.38,317.61,173.38,317.61Z" transform="translate(-24.81 -30.78)" style="fill:#00144d"/><path d="M181.49,273.91c-1.34,3.48-5.25,8.81-5.25,8.81l7.19,8.23,3.83-2.82s-3.09-2.73-.27-10.57l1.22-2.92-4.78-1.94Z" transform="translate(-24.81 -30.78)" style="fill:#f49578"/><path d="M146.32,381.84l-1.73,5s2.69.42,2.83.41,2.26-5.08,2.26-5.08Z" transform="translate(-24.81 -30.78)" style="fill:#f9685d"/><path d="M151.67,316.86s5.18,22.44,1,39a271.07,271.07,0,0,1-8.62,28.24l5.25.76s8.14-16.11,12.29-28.53a69.68,69.68,0,0,0,3.83-22.39,152.84,152.84,0,0,0-.94-17.06Z" transform="translate(-24.81 -30.78)" style="fill:#012460"/><path d="M144.36,384.89c-.93.23-1.94,3.18-.65,3.56,1.84.53,12.81,1.89,13.19.93s-2.38-1.77-4.08-2.22c-3.15-.84-3.26-2.23-4.61-1.59-.86.4-1.48.89-2.15.74C145.59,386.21,145.49,384.61,144.36,384.89Z" transform="translate(-24.81 -30.78)" style="fill:#03072d"/><path d="M161.51,385.28c-.92.27-1.81,3.26-.51,3.58,1.86.47,12.87,1.4,13.21.43s-2.44-1.68-4.15-2.07c-3.18-.72-3.35-2.09-4.68-1.4-.83.43-1.43.95-2.11.82C162.79,386.56,162.63,385,161.51,385.28Z" transform="translate(-24.81 -30.78)" style="fill:#03072d"/><path d="M191.13,263.11c1.76,1.77,2,4.26,1.93,6.63s-.84,7.3-3.13,8.25a7.41,7.41,0,0,1-7.68-.87,13,13,0,0,1-3.68-5.32c-.19-.52-.36-1.06-.51-1.59C175.39,260.68,189.38,261.36,191.13,263.11Z" transform="translate(-24.81 -30.78)" style="fill:#ffa988"/><path d="M177.75,267.44l5.78-3.54.25,0a7,7,0,0,0-.7,5.75c.4,1.19.71,4.88,2.08,5,2.73.26,1.82-1.75,5.26-2.36,1.73-.31,2.07.36,2.38,1.25a19.87,19.87,0,0,1-.11,5.06c-.28,1.52-2.09,1.14-3.18,1.13-1.94,0-3.58.19-4.78-.88s-1.8-7.07-2.82-8.64c-.5-.76-2.36-.79-2.28.69a2.86,2.86,0,0,0,2,2.69s-.16,1.31-1,1.64l-.13,0a12.93,12.93,0,0,1-1.92-3.46c-.19-.52-.36-1.06-.51-1.59A7.84,7.84,0,0,1,177.75,267.44Z" transform="translate(-24.81 -30.78)" style="fill:#03072d"/><path d="M176.49,270.43a46.39,46.39,0,0,1,7.37-3.09c2.43-.61,6.09-.76,8-1.27a27.85,27.85,0,0,0,4.55-1.74s.53-.66-.55-.71-1.87.2-2.68-.92c-.47-.66-2.9-6.68-7.72-7.28-3.92-.49-8.44,1.4-9.68,5.43-1,3.25.38,7.38.44,8.19S175.64,270.44,176.49,270.43Z" transform="translate(-24.81 -30.78)" style="fill:#f74234"/><polygon points="153.1 249.2 161.85 254.05 142.96 291.95 132.78 287.06 153.1 249.2" style="fill:#5151d6"/><path d="M185.87,283.75c-2.82-.82-7.07,5.51-10,13.9-2.61,7.4-10.35,19.92-11.24,25.49-.56,3.52,7.95,8.19,9.28,5.39,4.76-10.06,3.72-11.22,6.82-17.29,7.24-14.16,8.29-17.64,8.94-22.55.16-1.17.22-3.45-.38-3.72A23.45,23.45,0,0,0,185.87,283.75Z" transform="translate(-24.81 -30.78)" style="fill:#f74234"/><path d="M175.76,324.43c.56-1.27,1-2.34,1.38-3.29a56.88,56.88,0,0,1-11.33-6.37c-.59,1.3-1.12,2.55-1.57,3.71A44.19,44.19,0,0,0,175.76,324.43Z" transform="translate(-24.81 -30.78)" style="fill:#a6c8fa"/><path d="M168.44,279.5c-2.77,3.7-4.87,13.81-7.1,19.28-2,4.82-7.91,12.85-10.5,16.92-1.32,2.09,11.33,10.79,14.21,7.21,3.73-4.62,12.06-20.11,14.29-29.23,1.51-6.18.89-12.64-1-13.7C174.88,278,170.74,276.43,168.44,279.5Z" transform="translate(-24.81 -30.78)" style="fill:#f9685d"/><path d="M174.56,278.21a17.85,17.85,0,0,1,3,1.31c-1,9.55-8.74,27.45-15.77,35.92l-2.39-2C166.29,305.15,174.17,286.65,174.56,278.21Z" transform="translate(-24.81 -30.78)" style="fill:#b8d3fb"/><path d="M169,316.89a27.8,27.8,0,0,1-2.08,3.38,45.22,45.22,0,0,1-5.8-3.18,47.9,47.9,0,0,1-7.56-5.47c.74-1.1,1.54-2.27,2.33-3.46C160.7,312.45,165.78,316,169,316.89Z" transform="translate(-24.81 -30.78)" style="fill:#b8d3fb"/><path d="M189,284.83c-3,12.7-12.76,34.72-15.57,38.08l-2.3-1.92c2.34-2.8,12.11-24.62,15-37.17A25.07,25.07,0,0,1,189,284.83Z" transform="translate(-24.81 -30.78)" style="fill:#a6c8fa"/><polygon points="154.23 246.71 157.95 250.71 161.81 250.19 162.33 253.24 158.33 253.08 157.46 251.59 155.43 251.98 151.9 248.69 154.23 246.71" style="fill:#4741ad"/><path d="M201.48,291.88c2.28-2.49,7.08-2.81,6.79-4.9s-.77-3.14-2.05-3-2.06.51-.31-.23c.75-.31.86-1.15.18-.93a18.09,18.09,0,0,0-2.27.89c-.7.3-1.11,2.45-3.48,4.83L198,290.89Z" transform="translate(-24.81 -30.78)" style="fill:#ffa988"/><path d="M176.39,282.21c2.57,4.14,5.78,19.27,5.78,19.27l18.29-13.43,2.88,3S190.65,303.19,188,305.79c-3.22,3.15-7.78,5.43-11.58.93-3.29-3.9-7.48-17-8.33-21C166.58,277.8,173.51,277.55,176.39,282.21Z" transform="translate(-24.81 -30.78)" style="fill:#5f56e7"/><path d="M378.56,389.64l-1-2-.12-109.69a1,1,0,0,1,2.07,0l.12,109.7Z" transform="translate(-24.81 -30.78)" style="fill:#f9685d"/><rect x="377.41" y="285.17" width="2.07" height="14.18" transform="translate(-25.14 -30.36) rotate(-0.06)" style="fill:#fff"/><rect x="377.44" y="313.53" width="2.07" height="14.18" transform="translate(-25.18 -30.34) rotate(-0.07)" style="fill:#fff"/><rect x="377.48" y="341.89" width="2.07" height="14.18" transform="matrix(1, 0, 0, 1, -25.22, -30.34)" style="fill:#fff"/><rect x="377.51" y="370.25" width="2.07" height="14.18" transform="matrix(1, 0, 0, 1, -25.23, -30.36)" style="fill:#fff"/><path d="M434.33,383.53l.08,5.14s-2.89-.77-3-.83-.61-5.4-.61-5.4Z" transform="translate(-24.81 -30.78)" style="fill:#f9685d"/><polygon points="397.02 353.19 396.8 357.3 393.91 357.1 393.66 352.37 397.02 353.19" style="fill:#f9685d"/><path d="M432.4,278.59c-.31,3.41.74,9.4.74,9.4l-9.29,3.85-2-3.89s3.67-1,4.54-8.59l.18-2.91,4.74.35Z" transform="translate(-24.81 -30.78)" style="fill:#ea8d78"/><polygon points="347.56 256.24 350.93 256.24 353.68 253.04 356.44 256.24 359.8 256.24 359.8 244.33 347.56 244.33 347.56 256.24" style="fill:#f9685d"/><polygon points="348.66 244.33 359.8 255.18 359.8 256.24 359.8 256.24 358.71 256.24 347.56 245.39 347.56 244.33 347.56 244.33 348.66 244.33" style="fill:#f74234"/><polygon points="359.8 244.33 359.8 244.33 359.8 245.39 348.66 256.24 347.56 256.24 347.56 256.24 347.56 255.18 358.71 244.33 359.8 244.33" style="fill:#f74234"/><path d="M385.35,294.45c-2.08-1.06-2.61-1.45-3.39-2.47-1-1.28-.84-1.89-1.88-2.1-1.65-.34-2.06-.27-2.24-.17s-.92.73-.82,1,.78.15,1.08-.08,1.12.17,1.12.17l.23,1.71v2.9a2.36,2.36,0,0,0,1.73.48,11.26,11.26,0,0,1,3,1.26Z" transform="translate(-24.81 -30.78)" style="fill:#ffa988"/><path d="M375.83,281.07a2.67,2.67,0,1,0,2.66-2.67A2.67,2.67,0,0,0,375.83,281.07Z" transform="translate(-24.81 -30.78)" style="fill:#fff"/><path d="M414.85,325.33c1.22,27.58,3.33,60.09,3.33,60.09l4.07.16,4.43-62.77Z" transform="translate(-24.81 -30.78)" style="fill:#00237c"/><path d="M437.06,324.8c-.75,27.6-2.19,60.35-2.19,60.35l-4.16.25-5.53-62.93Z" transform="translate(-24.81 -30.78)" style="fill:#001a5d"/><path d="M419.76,285.42c-1-.06-3.81-.41-5.51,1.32-3.12,3.2-11.71,14.05-11.71,14.05l-18.13-7.57-1.8,3.53s13,6.89,16,8.53c3.63,2,6.06,2.12,10.26-1.36,3-2.46,9.76-8.83,9.76-8.83Z" transform="translate(-24.81 -30.78)" style="fill:#4741ad"/><path d="M442.93,289.3a3.81,3.81,0,0,0-6-.48c-1.52,1.69-2.86,3.52-2.15,4.53,2.55,3.67,15,13.33,15,13.33l-11.33,9.93,1.52,3.26s12.16-7.78,14.68-10.09,1.15-4.82-2.5-9.28C449.69,297.51,442.93,289.3,442.93,289.3Z" transform="translate(-24.81 -30.78)" style="fill:#353182"/><path d="M424.33,266.64c-1.4,1.82-1.36,4.13-1,6.27s1.62,6.56,3.82,7.16a6.84,6.84,0,0,0,6.91-1.69,12.12,12.12,0,0,0,2.73-5.29c.11-.5.2-1,.27-1.51C438.4,262.57,425.72,264.84,424.33,266.64Z" transform="translate(-24.81 -30.78)" style="fill:#ffa988"/><path d="M433.57,272c-.39.74-1.13.19-1.13-.4a8,8,0,0,0-1.31-5.16h.23L437,269a7,7,0,0,1,0,2.56c-.07.5-.16,1-.27,1.51a12.14,12.14,0,0,1-1.35,3.38l-.12,0c-.84-.2-1.13-1.38-1.13-1.38a2.63,2.63,0,0,0,1.52-2.69C435.63,271,434,271.29,433.57,272Z" transform="translate(-24.81 -30.78)" style="fill:#03072d"/><polygon points="407.55 255.3 398.35 255.15 395.96 292.7 406.31 293.46 407.55 255.3" style="fill:#4741ad"/><path d="M440.58,287.42c-.28,2.52-.79,5.77-1.49,9.59a75.06,75.06,0,0,0-1,12.88c0,4.78.37,13.53.54,18,.09,2.28-12.28,3.28-12.56-.93-.31-4.62-1.55-21.11,1.37-29.13s3.3-11,6.12-11.05A41.34,41.34,0,0,1,440.58,287.42Z" transform="translate(-24.81 -30.78)" style="fill:#f74234"/><path d="M425.82,323.14c-.07-1.09,0-2.46-.05-3.77a68.93,68.93,0,0,0,12.55.73h0c.05,1.27.1,2.52.14,3.69C435.83,324.16,427.93,323.36,425.82,323.14Z" transform="translate(-24.81 -30.78)" style="fill:#a6c8fa"/><path d="M423.41,285.66c2.65.55,3,7,3.17,15.17.14,6.54.43,21.53-1.24,26.44-1,3.11-11.49,2.81-11.36,0,.43-10.22,1.26-10.74,1.85-17,.5-5.17,1.49-25.09,1.49-25.09A32.31,32.31,0,0,1,423.41,285.66Z" transform="translate(-24.81 -30.78)" style="fill:#f9685d"/><path d="M435,385.8c.85.26,1.61,3,.42,3.3-1.72.39-11.86,1.07-12.16.17s2.27-1.5,3.86-1.83c2.93-.61,3.1-1.87,4.32-1.22.76.42,1.3.9,1.93.8C433.81,387,434,385.48,435,385.8Z" transform="translate(-24.81 -30.78)" style="fill:#001a67"/><path d="M422.35,386.14c.83.32,1.42,3.12.2,3.32-1.73.29-11.9.32-12.14-.6s2.36-1.36,4-1.58c3-.42,3.22-1.67,4.38-.94.74.46,1.25,1,1.88.91C421.08,387.21,421.35,385.76,422.35,386.14Z" transform="translate(-24.81 -30.78)" style="fill:#001a67"/><path d="M431.63,321.74c-.5-6.37,1.37-25.16,3.12-35,1,0,2,.13,2.87.22-1.71,9.44-3.63,28.41-3.14,34.53Z" transform="translate(-24.81 -30.78)" style="fill:#a6c8fa"/><path d="M438.54,271.59a44,44,0,0,0-7.09-1.95c-2.28-.27-5.64,0-7.41-.22a25.14,25.14,0,0,1-4.36-1.05s-.56-.54.43-.71,1.72,0,2.33-1.15c.35-.66,1.86-6.43,6.19-7.55,3.51-.91,7.85.28,9.46,3.81,1.3,2.85.52,6.78.56,7.52S439.32,271.51,438.54,271.59Z" transform="translate(-24.81 -30.78)" style="fill:#f74234"/><polygon points="408.03 253.32 403.78 255.24 400.39 252.67 398.6 254.87 402.71 257 403.72 255.86 404.68 257 409 255.96 408.03 253.32" style="fill:#353182"/><path d="M377.62,291.79c.92,0,1.27-.11,1.27-.46s-.63-.36-1.27-.36-.74.19-.74.41S377.11,291.79,377.62,291.79Z" transform="translate(-24.81 -30.78)" style="fill:#ffa988"/><path d="M377.62,292.72c.92,0,1.27-.11,1.27-.46s-.63-.36-1.27-.36-.74.19-.74.41S377.11,292.72,377.62,292.72Z" transform="translate(-24.81 -30.78)" style="fill:#ffa988"/><path d="M377.59,293.62c.89,0,1.24-.11,1.24-.44s-.62-.36-1.24-.36-.71.19-.71.4S377.1,293.62,377.59,293.62Z" transform="translate(-24.81 -30.78)" style="fill:#ffa988"/><path d="M377.62,294.45c.81,0,1.12-.1,1.12-.4s-.56-.33-1.12-.33-.65.18-.65.37S377.17,294.45,377.62,294.45Z" transform="translate(-24.81 -30.78)" style="fill:#ffa988"/><path d="M414.21,323.09c.09-1.27.19-2.34.29-3.27a51.74,51.74,0,0,0,11.95-.33c-.08,1.32-.19,2.56-.32,3.69A40.7,40.7,0,0,1,414.21,323.09Z" transform="translate(-24.81 -30.78)" style="fill:#b8d3fb"/><path d="M419.11,285.18c.83,0,1.84.1,2.87.24.34,9.53-.66,26.29-1.35,36.21l-2.85-.2C418.93,304.8,419.39,292.19,419.11,285.18Z" transform="translate(-24.81 -30.78)" style="fill:#b8d3fb"/><path d="M436,317.17c-1.83-.95-5.21-.51-4.26,0,.38.2,1.86.27,1.41.47-.67.31-3.88.76-3.72,1.54.08.36,3.47-.73,3.63-.42s-3.5,1-3.49,1.47c0,.73,3.65-.5,3.74-.35.32.47-3.12,1-2.92,1.45.27.66,3.12-.49,3.25-.38s-2,.81-1.78,1.09,1.2,0,2.29-.32c.69-.19,1.89,0,2.45-.44a19.89,19.89,0,0,1,3.25-1.71l-1.26-2.7S436.8,317.61,436,317.17Z" transform="translate(-24.81 -30.78)" style="fill:#ffa988"/><path d="M512.54,322.83c.16,1.3.12,2.78,1.07,3.67s2.35.73,3.59.91a7.15,7.15,0,0,1,6,7.27c-.19,3-2.25,6.21-.64,8.74,1.41,2.22,4.76,2.27,6.53,4.21a6.67,6.67,0,0,1,1.43,3.41,11.58,11.58,0,0,1-1.14,7.66,7.71,7.71,0,0,1-6.4,4,11.53,11.53,0,0,1-3.61-.72,46.28,46.28,0,0,1-6.18-2.57c-2.24-1.12-4.58-2.68-5.16-5.12a6.19,6.19,0,0,1,1.67-5.44c.65-.7,1.47-1.47,1.33-2.41a2.4,2.4,0,0,0-1.3-1.53c-1.8-1.09-3.91-1.54-5.78-2.51s-3.59-2.76-3.45-4.86c.22-3.27,4.54-4.84,5.35-8a7.36,7.36,0,0,0-.74-4.6c-1-2.35-2.92-7.54,1.09-8.33C509.45,315.92,512.19,320.08,512.54,322.83Z" transform="translate(-24.81 -30.78)" style="fill:#0c30d9"/><path d="M512.84,342a18.52,18.52,0,0,1-5-2.51,33.15,33.15,0,0,1-4.22-3.51,31.07,31.07,0,0,0,4.47,3.11,17.57,17.57,0,0,0,4.94,2Z" transform="translate(-24.81 -30.78)" style="fill:#00237c"/><path d="M507.72,321.86l1.87,6.07L511.4,334c1.23,4,2.4,8.1,3.68,12.13s2.5,8.06,3.85,12.06c.66,2,1.36,4,2.12,6s1.55,3.92,2.43,5.85a74.33,74.33,0,0,1-5.31-11.54c-1.51-4-2.82-8-4.09-12s-2.39-8.13-3.45-12.23l-1.53-6.16C508.63,326,508.14,323.94,507.72,321.86Z" transform="translate(-24.81 -30.78)" style="fill:#00237c"/><path d="M512.8,341.08a17.19,17.19,0,0,0,3.1-4.35,31,31,0,0,0,2.08-5.05,31.63,31.63,0,0,1-1.65,5.25,18.3,18.3,0,0,1-2.84,4.8Z" transform="translate(-24.81 -30.78)" style="fill:#00237c"/><path d="M537.57,305.09a10.43,10.43,0,0,0-3,2.46,10.64,10.64,0,0,0-1.86,3.5c-.75,2.39-1.16,4.52-4.11,5.43-2.3.71-5.14.19-7,1.62-2.13,1.66-1.58,4.83-.59,7.29s2.24,5.23,1,7.53c-1.7,3.09-6.71,3.13-9.13,5.77-2.18,2.36-1.58,6-.71,9a85.66,85.66,0,0,0,4.05,11.38c.77,1.76,1.73,3.61,3.53,4.55,2.07,1.09,4.63.64,6.84-.07A31.1,31.1,0,0,0,538,357.09c3.4-3.12,6.15-8.39,3-12.63-.74-1-1.75-1.78-2.46-2.78a3,3,0,0,1-.39-3.35,4,4,0,0,1,1.42-1.1c2.52-1.38,5.31-2.44,7.41-4.31s3.38-4.93,2-7.38c-1-1.82-3.27-2.9-4.16-4.78-1.06-2.26.19-4.79,1.45-6.9s2.62-4.56,1.73-6.89a5.37,5.37,0,0,0-4-3.12A9.5,9.5,0,0,0,537.57,305.09Z" transform="translate(-24.81 -30.78)" style="fill:#5794fc"/><path d="M541.1,309.67l-1.72,3.57-1.56,3.63-1.44,3.68L535,324.27c-1.73,5-3.34,10-4.77,15.07s-2.84,10.15-4.15,15.26c-.66,2.56-1.28,5.12-1.89,7.69S523,367.43,522.5,370c.64-5.25,1.7-10.44,2.84-15.6s2.48-10.28,3.92-15.37,3.12-10.12,5-15.06A86.6,86.6,0,0,1,541.1,309.67Z" transform="translate(-24.81 -30.78)" style="fill:#0c30d9"/><path d="M526.15,352.24a37.2,37.2,0,0,0,7.18-1.53,38.15,38.15,0,0,0,6.83-2.87,38.84,38.84,0,0,1-6.63,3.42,37.24,37.24,0,0,1-7.22,2.13Z" transform="translate(-24.81 -30.78)" style="fill:#0c30d9"/><path d="M526.51,351a22.87,22.87,0,0,1-4.91-5.26,36.8,36.8,0,0,1-3.46-6.18,37.28,37.28,0,0,0,4,5.8,21.86,21.86,0,0,0,5.12,4.6Z" transform="translate(-24.81 -30.78)" style="fill:#0c30d9"/><path d="M531.94,331.41a28.82,28.82,0,0,0,6.6-1.1,44,44,0,0,0,6.37-2.29,46.16,46.16,0,0,1-6.21,2.79,29.62,29.62,0,0,1-6.69,1.64Z" transform="translate(-24.81 -30.78)" style="fill:#0c30d9"/><path d="M532.59,329.93a22.62,22.62,0,0,1-3.74-4.85,37.37,37.37,0,0,1-2.62-5.45,37.77,37.77,0,0,0,3,5.18,21.75,21.75,0,0,0,4,4.37Z" transform="translate(-24.81 -30.78)" style="fill:#0c30d9"/><path d="M531.65,390.06H515.3a1.75,1.75,0,0,1-1.75-1.75l-3.61-27.75H537l-3.6,27.75A1.75,1.75,0,0,1,531.65,390.06Z" transform="translate(-24.81 -30.78)" style="fill:#0c30d9"/><circle cx="67.32" cy="319.37" r="14.4" transform="translate(-208.32 79.75) rotate(-38.32)" style="fill:#fff"/><polygon points="39.93 275.82 39.52 289.19 45.5 287.98 39.93 275.82" style="fill:#f74234"/><polygon points="45.09 301.35 39.52 289.19 45.5 287.98 45.09 301.35" style="fill:#2257ee"/><path d="M75,332.92a15.57,15.57,0,1,1,7.59-16.63h0A15.6,15.6,0,0,1,75,332.92ZM60.78,307.85a13.24,13.24,0,1,0,19.52,8.9h0a13.28,13.28,0,0,0-19.52-8.9Z" transform="translate(-24.81 -30.78)" style="fill:#0c30d9"/><path d="M75,332.92a15.57,15.57,0,1,1,7.59-16.63h0A15.6,15.6,0,0,1,75,332.92Z" transform="translate(-24.81 -30.78)" style="fill:#edf6ff;opacity:0.30000000000000004;mix-blend-mode:screen"/><path d="M56.86,362.25l-.25-1L60.28,356l37.81-27,.18.25a2.8,2.8,0,0,1-.66,3.91Z" transform="translate(-24.81 -30.78)" style="fill:#5794fc"/><path d="M92.29,383.2l1-.24,2.87-5.76,5.42-46.14-.3,0a2.8,2.8,0,0,0-3.11,2.46Z" transform="translate(-24.81 -30.78)" style="fill:#5794fc"/><rect x="60.56" y="351.89" width="1.49" height="4.93" rx="0.33" transform="translate(289.3 67.82) rotate(54.48)" style="fill:#0c30d9"/><rect x="96.3" y="373.03" width="1.49" height="4.93" rx="0.33" transform="translate(124.45 729.02) rotate(-173.25)" style="fill:#0c30d9"/><rect x="102.08" y="323.48" width="2.03" height="2.03" transform="translate(154.82 -38.05) rotate(30.62)" style="fill:#79a9fd"/><rect x="104.43" y="315.28" width="2.93" height="8.97" rx="0.73" transform="translate(152.8 -40.14) rotate(30.62)" style="fill:#5794fc"/><path d="M106.71,328.13a7,7,0,0,0-8.54-5.05,6.92,6.92,0,0,0-4.29,3.22,7,7,0,0,0,2.46,9.61,6.94,6.94,0,0,0,3.56,1,7.13,7.13,0,0,0,1.76-.22,7,7,0,0,0,5-8.54Zm-2.1,4.52a5.37,5.37,0,0,1-3.34,2.51,5.48,5.48,0,0,1-4.14-.59,5.46,5.46,0,1,1,8.07-6.06A5.36,5.36,0,0,1,104.61,332.65Z" transform="translate(-24.81 -30.78)" style="fill:#91c3fe"/></g></g></svg>